<svg data-v-423bf9ae="" xmlns="http://www.w3.org/2000/svg" viewBox="0 0 379.3551446044695 60" class="font"><!----><!----><defs data-v-423bf9ae=""><linearGradient data-v-423bf9ae="" gradientTransform="rotate(25)" id="ce337780-ca80-42d4-ae75-6e2a2feff1f8" x1="0%" y1="0%" x2="100%" y2="0%"><stop data-v-423bf9ae="" offset="0%" style="stop-color: rgb(90, 90, 45); stop-opacity: 1;"></stop><stop data-v-423bf9ae="" offset="100%" style="stop-color: rgb(13, 227, 13); stop-opacity: 1;"></stop></linearGradient></defs><g data-v-423bf9ae="" id="6b3cc161-0853-49d1-9f80-9cb5e4184511" fill="url(#ce337780-ca80-42d4-ae75-6e2a2feff1f8)" transform="matrix(3.990117200484005,0,0,3.990117200484005,-2.9037693135526297,-12.461548754657294)"><path d="M4.60 13.77L4.60 13.77L4.60 13.77Q4.77 13.73 4.80 13.87L4.80 13.87L4.80 13.87Q4.83 14 4.69 14.22L4.69 14.22L4.69 14.22Q4.55 14.43 4.14 14.76L4.14 14.76L4.14 14.76Q3.74 15.09 3.25 15.30L3.25 15.30L3.25 15.30Q2.28 15.69 1.81 15.11L1.81 15.11L1.81 15.11Q1.36 14.59 1.57 13.13L1.57 13.13L1.93 8.92L0.87 8.92L0.87 8.92Q0.66 8.92 0.76 8.65L0.76 8.65L0.76 8.65Q0.87 8.30 1.18 8.07L1.18 8.07L1.18 8.07Q1.50 7.84 1.65 7.84L1.65 7.84L2.03 7.84L2.24 5.45L2.24 5.45Q2.25 5.29 2.42 5.07L2.42 5.07L2.42 5.07Q2.59 4.84 2.77 4.72L2.77 4.72L2.77 4.72Q2.95 4.59 3.07 4.56L3.07 4.56L3.07 4.56Q3.32 4.49 3.30 4.72L3.30 4.72L3.04 7.84L3.04 7.84Q3.65 7.84 4.26 7.84L4.26 7.84L4.26 7.84Q4.47 7.84 4.37 8.12L4.37 8.12L4.37 8.12Q4.26 8.47 3.94 8.69L3.94 8.69L3.94 8.69Q3.63 8.92 3.47 8.92L3.47 8.92L2.94 8.92L2.63 12.42L2.63 12.42Q2.63 12.43 2.63 12.45L2.63 12.45L2.63 12.45Q2.44 13.71 2.81 14.13L2.81 14.13L2.81 14.13Q3.16 14.56 3.67 14.34L3.67 14.34L3.67 14.34Q3.91 14.22 4.17 14.01L4.17 14.01L4.17 14.01Q4.42 13.80 4.60 13.77ZM6.87 4.02L6.87 4.02Q6.89 3.85 7.06 3.63L7.06 3.63L7.06 3.63Q7.22 3.40 7.41 3.28L7.41 3.28L7.41 3.28Q7.59 3.16 7.70 3.14L7.70 3.14L7.70 3.14Q7.95 3.07 7.94 3.29L7.94 3.29L7.46 8.54L7.46 8.54Q7.90 8.02 8.48 7.68L8.48 7.68L8.48 7.68Q9.06 7.34 9.65 7.34L9.65 7.34L9.65 7.34Q12.04 7.31 11.69 10.63L11.69 10.63L11.35 14.55L11.35 14.55Q11.34 14.70 11.17 14.92L11.17 14.92L11.17 14.92Q11.00 15.15 10.82 15.27L10.82 15.27L10.82 15.27Q10.64 15.40 10.53 15.43L10.53 15.43L10.53 15.43Q10.28 15.50 10.29 15.27L10.29 15.27L10.63 11.35L10.63 11.35Q10.95 8.39 8.89 8.40L8.89 8.40L8.89 8.40Q8.48 8.40 8.29 8.51L8.29 8.51L8.29 8.51Q7.80 8.79 7.38 10.05L7.38 10.05L7.38 10.05Q7.35 10.14 7.29 10.23L7.29 10.23L6.90 14.55L6.90 14.55Q6.89 14.70 6.72 14.93L6.72 14.93L6.72 14.93Q6.55 15.16 6.37 15.28L6.37 15.28L6.37 15.28Q6.19 15.40 6.08 15.43L6.08 15.43L6.08 15.43Q5.82 15.50 5.84 15.27L5.84 15.27L6.87 4.02ZM18.17 11.73L14.11 11.63L14.11 11.63Q14.06 14.22 16.37 14.38L16.37 14.38L16.37 14.38Q16.86 14.42 17.25 14.35L17.25 14.35L17.25 14.35Q17.75 14.27 17.81 14.15L17.81 14.15L17.81 14.15Q17.92 13.94 18.14 13.75L18.14 13.75L18.14 13.75Q18.35 13.55 18.54 13.49L18.54 13.49L18.54 13.49Q18.72 13.43 18.79 13.54L18.79 13.54L18.79 13.54Q18.89 13.72 18.52 14.20L18.52 14.20L18.52 14.20Q18.16 14.67 17.77 14.95L17.77 14.95L17.77 14.95Q17.39 15.22 17.02 15.32L17.02 15.32L17.02 15.32Q16.21 15.54 15.55 15.44L15.55 15.44L15.55 15.44Q12.80 15.26 13.08 11.96L13.08 11.96L13.08 11.96Q13.16 10.93 13.38 10.18L13.38 10.18L13.38 10.18Q13.61 9.44 14.10 8.78L14.10 8.78L14.10 8.78Q15.22 7.27 16.88 7.34L16.88 7.34L16.88 7.34Q19.53 7.43 19.10 10.85L19.10 10.85L19.10 10.85Q18.97 11.41 18.54 11.65L18.54 11.65L18.54 11.65Q18.37 11.75 18.17 11.73L18.17 11.73ZM14.21 10.58L14.21 10.58L14.21 10.58Q14.31 10.56 14.36 10.56L14.36 10.56L18.09 10.64L18.09 10.64Q18.05 8.47 16.09 8.40L16.09 8.40L16.09 8.40Q15.13 8.36 14.81 8.81L14.81 8.81L14.81 8.81Q14.39 9.37 14.21 10.58ZM23.47 7.96L23.47 7.96L23.47 7.96Q23.60 7.74 23.81 7.56L23.81 7.56L23.81 7.56Q24.02 7.38 24.21 7.34L24.21 7.34L24.21 7.34Q24.39 7.31 24.43 7.42L24.43 7.42L26.11 13.41L28.36 8.08L28.36 8.08Q28.45 7.88 28.65 7.67L28.65 7.67L28.65 7.67Q28.85 7.46 29.06 7.38L29.06 7.38L29.06 7.38Q29.26 7.29 29.34 7.37L29.34 7.37L29.34 7.37Q29.43 7.45 29.34 7.66L29.34 7.66L26.38 14.70L26.38 14.70Q26.17 15.19 25.68 15.40L25.68 15.40L25.68 15.40Q25.40 15.53 25.35 15.34L25.35 15.34L23.37 8.30L23.37 8.30Q23.34 8.18 23.47 7.96ZM30.83 8.22L30.83 8.22Q30.84 8.06 31.01 7.84L31.01 7.84L31.01 7.84Q31.18 7.62 31.36 7.50L31.36 7.50L31.36 7.50Q31.54 7.38 31.67 7.35L31.67 7.35L31.67 7.35Q31.92 7.29 31.89 7.50L31.89 7.50L31.15 14.56L31.15 14.56Q31.14 14.73 30.97 14.95L30.97 14.95L30.97 14.95Q30.80 15.16 30.62 15.28L30.62 15.28L30.62 15.28Q30.44 15.40 30.31 15.43L30.31 15.43L30.31 15.43Q30.06 15.48 30.09 15.26L30.09 15.26L30.83 8.22ZM30.90 5.81L30.90 5.81Q30.91 5.66 31.07 5.43L31.07 5.43L31.07 5.43Q31.23 5.21 31.42 5.08L31.42 5.08L31.42 5.08Q31.60 4.96 31.72 4.93L31.72 4.93L31.72 4.93Q31.98 4.86 31.96 5.08L31.96 5.08L31.89 6.06L31.89 6.06Q31.88 6.22 31.72 6.44L31.72 6.44L31.72 6.44Q31.56 6.66 31.37 6.79L31.37 6.79L31.37 6.79Q31.19 6.92 31.07 6.94L31.07 6.94L31.07 6.94Q30.81 7.01 30.83 6.79L30.83 6.79L30.90 5.81ZM33.49 8.22L33.49 8.22Q33.50 8.06 33.67 7.84L33.67 7.84L33.67 7.84Q33.84 7.62 34.02 7.50L34.02 7.50L34.02 7.50Q34.20 7.38 34.33 7.35L34.33 7.35L34.33 7.35Q34.58 7.29 34.55 7.50L34.55 7.50L34.48 8.12L34.48 8.12Q35.56 7.21 36.71 7.34L36.71 7.34L36.71 7.34Q36.90 7.36 36.81 7.63L36.81 7.63L36.81 7.63Q36.67 7.99 36.34 8.20L36.34 8.20L36.34 8.20Q36.02 8.41 35.90 8.40L35.90 8.40L35.90 8.40Q35.18 8.32 34.68 8.69L34.68 8.69L34.68 8.69Q34.44 8.88 34.34 9.55L34.34 9.55L33.81 14.56L33.81 14.56Q33.80 14.73 33.63 14.95L33.63 14.95L33.63 14.95Q33.46 15.16 33.28 15.28L33.28 15.28L33.28 15.28Q33.10 15.40 32.97 15.43L32.97 15.43L32.97 15.43Q32.72 15.48 32.75 15.26L32.75 15.26L33.26 10.36L33.26 10.36Q33.26 10.33 33.28 10.25L33.28 10.25L33.49 8.22ZM41.04 13.77L41.04 13.77L41.04 13.77Q41.22 13.73 41.24 13.87L41.24 13.87L41.24 13.87Q41.27 14 41.13 14.22L41.13 14.22L41.13 14.22Q40.99 14.43 40.59 14.76L40.59 14.76L40.59 14.76Q40.18 15.09 39.69 15.30L39.69 15.30L39.69 15.30Q38.72 15.69 38.25 15.11L38.25 15.11L38.25 15.11Q37.80 14.59 38.01 13.13L38.01 13.13L38.37 8.92L37.31 8.92L37.31 8.92Q37.10 8.92 37.20 8.65L37.20 8.65L37.20 8.65Q37.31 8.30 37.63 8.07L37.63 8.07L37.63 8.07Q37.94 7.84 38.09 7.84L38.09 7.84L38.47 7.84L38.68 5.45L38.68 5.45Q38.70 5.29 38.86 5.07L38.86 5.07L38.86 5.07Q39.03 4.84 39.21 4.72L39.21 4.72L39.21 4.72Q39.40 4.59 39.51 4.56L39.51 4.56L39.51 4.56Q39.76 4.49 39.75 4.72L39.75 4.72L39.48 7.84L39.48 7.84Q40.10 7.84 40.70 7.84L40.70 7.84L40.70 7.84Q40.91 7.84 40.81 8.12L40.81 8.12L40.81 8.12Q40.70 8.47 40.38 8.69L40.38 8.69L40.38 8.69Q40.07 8.92 39.91 8.92L39.91 8.92L39.38 8.92L39.07 12.42L39.07 12.42Q39.07 12.43 39.07 12.45L39.07 12.45L39.07 12.45Q38.88 13.71 39.26 14.13L39.26 14.13L39.26 14.13Q39.61 14.56 40.11 14.34L40.11 14.34L40.11 14.34Q40.35 14.22 40.61 14.01L40.61 14.01L40.61 14.01Q40.87 13.80 41.04 13.77ZM47.81 14.56L47.81 14.56Q47.80 14.71 47.63 14.94L47.63 14.94L47.63 14.94Q47.46 15.16 47.28 15.28L47.28 15.28L47.28 15.28Q47.10 15.40 46.97 15.43L46.97 15.43L46.97 15.43Q46.72 15.48 46.75 15.26L46.75 15.26L46.84 14.35L46.84 14.35Q46.45 14.80 45.89 15.12L45.89 15.12L45.89 15.12Q45.33 15.44 44.74 15.44L44.74 15.44L44.74 15.44Q42.35 15.47 42.70 12.14L42.70 12.14L43.04 8.23L43.04 8.23Q43.05 8.08 43.22 7.85L43.22 7.85L43.22 7.85Q43.39 7.62 43.57 7.50L43.57 7.50L43.57 7.50Q43.75 7.38 43.86 7.35L43.86 7.35L43.86 7.35Q44.11 7.28 44.10 7.50L44.10 7.50L43.76 11.42L43.76 11.42Q43.44 14.39 45.50 14.38L45.50 14.38L45.50 14.38Q45.91 14.38 46.10 14.27L46.10 14.27L46.10 14.27Q46.59 13.99 47.01 12.73L47.01 12.73L47.01 12.73Q47.01 12.71 47.01 12.68L47.01 12.68L47.49 8.22L47.49 8.22Q47.50 8.05 47.67 7.83L47.67 7.83L47.67 7.83Q47.84 7.62 48.02 7.50L48.02 7.50L48.02 7.50Q48.20 7.38 48.33 7.35L48.33 7.35L48.33 7.35Q48.58 7.29 48.55 7.50L48.55 7.50L47.81 14.56ZM55.67 13.96L55.67 13.96L55.67 13.96Q55.85 13.93 55.87 14.06L55.87 14.06L55.87 14.06Q55.90 14.20 55.75 14.42L55.75 14.42L55.75 14.42Q55.61 14.64 55.26 14.92L55.26 14.92L55.26 14.92Q54.91 15.20 54.52 15.36L54.52 15.36L54.52 15.36Q53.75 15.67 53.56 15.08L53.56 15.08L53.56 15.08Q53.48 14.84 53.49 14.20L53.49 14.20L53.49 14.20Q52.77 15.08 52.02 15.34L52.02 15.34L52.02 15.34Q51.28 15.61 50.64 15.43L50.64 15.43L50.64 15.43Q48.64 14.87 49.43 10.81L49.43 10.81L49.43 10.81Q49.70 9.46 50.37 8.60L50.37 8.60L50.37 8.60Q51.52 7.11 53.19 7.34L53.19 7.34L53.19 7.34Q53.89 7.42 54.28 7.85L54.28 7.85L54.28 7.85Q54.60 7.42 54.95 7.34L54.95 7.34L54.95 7.34Q55.06 7.31 55.13 7.36L55.13 7.36L55.13 7.36Q55.19 7.41 55.17 7.52L55.17 7.52L55.17 7.52Q54.36 13.44 54.60 14.18L54.60 14.18L54.60 14.18Q54.71 14.52 54.96 14.39L54.96 14.39L54.96 14.39Q55.08 14.34 55.29 14.16L55.29 14.16L55.29 14.16Q55.50 13.99 55.67 13.96ZM53.56 12.80L53.56 12.80L53.56 12.80Q53.66 11.68 53.70 11.37L53.70 11.37L53.70 11.37Q54.07 8.62 52.35 8.40L52.35 8.40L52.35 8.40Q51.93 8.34 51.62 8.41L51.62 8.41L51.62 8.41Q51.20 8.50 51.04 8.68L51.04 8.68L51.04 8.68Q50.69 9.13 50.47 10.28L50.47 10.28L50.47 10.28Q50.25 11.42 50.27 12.31L50.27 12.31L50.27 12.31Q50.36 14.04 51.51 14.36L51.51 14.36L51.51 14.36Q52.39 14.62 52.86 14.04L52.86 14.04L52.86 14.04Q53.21 13.62 53.56 12.80ZM57.72 4.02L57.72 4.02Q57.74 3.85 57.90 3.63L57.90 3.63L57.90 3.63Q58.07 3.40 58.25 3.28L58.25 3.28L58.25 3.28Q58.44 3.16 58.55 3.14L58.55 3.14L58.55 3.14Q58.80 3.07 58.79 3.29L58.79 3.29L57.75 14.55L57.75 14.55Q57.74 14.70 57.57 14.93L57.57 14.93L57.57 14.93Q57.40 15.16 57.22 15.28L57.22 15.28L57.22 15.28Q57.04 15.40 56.92 15.43L56.92 15.43L56.92 15.43Q56.67 15.50 56.69 15.27L56.69 15.27L57.72 4.02ZM67.90 7.78L67.90 7.78L67.90 7.78Q68.18 7.43 68.39 7.38L68.39 7.38L68.39 7.38Q68.74 7.28 68.73 7.49L68.73 7.49L68.73 7.49Q68.45 12.04 68.31 13.02L68.31 13.02L68.31 13.02Q68.19 14.18 67.94 15.02L67.94 15.02L67.94 15.02Q67.69 15.86 67.12 16.64L67.12 16.64L67.12 16.64Q66.56 17.42 65.80 17.79L65.80 17.79L65.80 17.79Q65.04 18.17 64.27 18.16L64.27 18.16L64.27 18.16Q62.69 18.14 62.10 17.18L62.10 17.18L62.10 17.18Q62.05 17.08 62.15 16.86L62.15 16.86L62.15 16.86Q62.26 16.65 62.47 16.46L62.47 16.46L62.47 16.46Q62.68 16.27 62.87 16.20L62.87 16.20L62.87 16.20Q63.07 16.13 63.14 16.23L63.14 16.23L63.14 16.23Q63.64 17.08 65.06 17.09L65.06 17.09L65.06 17.09Q66.07 17.11 66.44 16.56L66.44 16.56L66.44 16.56Q66.98 15.82 67.20 14.17L67.20 14.17L67.20 14.17Q66.47 15.06 65.72 15.34L65.72 15.34L65.72 15.34Q64.97 15.61 64.33 15.43L64.33 15.43L64.33 15.43Q62.33 14.87 63.13 10.81L63.13 10.81L63.13 10.81Q63.39 9.46 64.06 8.60L64.06 8.60L64.06 8.60Q65.21 7.11 66.88 7.34L66.88 7.34L66.88 7.34Q67.51 7.42 67.90 7.78ZM67.35 12.60L67.35 12.60L67.35 12.60Q67.45 11.52 67.44 11.52L67.44 11.52L67.44 11.52Q67.38 11.48 67.40 11.37L67.40 11.37L67.40 11.37Q67.76 8.62 66.04 8.40L66.04 8.40L66.04 8.40Q65.62 8.34 65.31 8.41L65.31 8.41L65.31 8.41Q64.88 8.50 64.74 8.68L64.74 8.68L64.74 8.68Q64.39 9.13 64.16 10.28L64.16 10.28L64.16 10.28Q63.94 11.42 63.97 12.31L63.97 12.31L63.97 12.31Q64.05 14.04 65.20 14.36L65.20 14.36L65.20 14.36Q66.08 14.62 66.56 14.04L66.56 14.04L66.56 14.04Q66.92 13.61 67.28 12.74L67.28 12.74L67.28 12.74Q67.31 12.67 67.35 12.60ZM70.35 4.02L70.35 4.02Q70.36 3.85 70.53 3.63L70.53 3.63L70.53 3.63Q70.70 3.40 70.88 3.28L70.88 3.28L70.88 3.28Q71.06 3.16 71.18 3.14L71.18 3.14L71.18 3.14Q71.43 3.07 71.41 3.29L71.41 3.29L70.38 14.55L70.38 14.55Q70.36 14.70 70.20 14.93L70.20 14.93L70.20 14.93Q70.03 15.16 69.85 15.28L69.85 15.28L69.85 15.28Q69.66 15.40 69.55 15.43L69.55 15.43L69.55 15.43Q69.30 15.50 69.31 15.27L69.31 15.27L70.35 4.02ZM76.23 7.34L76.23 7.34L76.23 7.34Q78.81 7.56 78.30 11.55L78.30 11.55L78.30 11.55Q78.09 13.15 77.36 14.11L77.36 14.11L77.36 14.11Q76.24 15.60 74.58 15.44L74.58 15.44L74.58 15.44Q71.75 15.19 72.18 11.80L72.18 11.80L72.18 11.80Q72.31 10.84 72.55 10.11L72.55 10.11L72.55 10.11Q72.80 9.38 73.29 8.75L73.29 8.75L73.29 8.75Q74.48 7.18 76.23 7.34ZM75.42 8.40L75.42 8.40L75.42 8.40Q74.35 8.30 73.98 8.81L73.98 8.81L73.98 8.81Q73.77 9.07 73.56 9.68L73.56 9.68L73.56 9.68Q73.35 10.29 73.25 11.10L73.25 11.10L73.25 11.10Q72.86 14.15 75.39 14.38L75.39 14.38L75.39 14.38Q76.36 14.46 76.66 14.06L76.66 14.06L76.66 14.06Q76.82 13.85 76.99 13.36L76.99 13.36L76.99 13.36Q77.15 12.88 77.24 12.25L77.24 12.25L77.24 12.25Q77.71 8.60 75.42 8.40ZM82.36 15.44L82.36 15.44L82.36 15.44Q81.17 15.44 80.53 14.63L80.53 14.63L80.53 14.63Q80.49 14.77 80.34 14.96L80.34 14.96L80.34 14.96Q80.19 15.15 80.01 15.27L80.01 15.27L80.01 15.27Q79.83 15.40 79.72 15.43L79.72 15.43L79.72 15.43Q79.46 15.50 79.48 15.27L79.48 15.27L80.46 4.09L80.46 4.09Q80.47 3.93 80.64 3.71L80.64 3.71L80.64 3.71Q80.81 3.49 80.99 3.36L80.99 3.36L80.99 3.36Q81.17 3.23 81.28 3.21L81.28 3.21L81.28 3.21Q81.54 3.14 81.52 3.36L81.52 3.36L81.12 8.02L81.12 8.02Q81.87 7.32 82.78 7.34L82.78 7.34L82.78 7.34Q84.56 7.35 85.22 8.40L85.22 8.40L85.22 8.40Q85.88 9.45 85.44 11.35L85.44 11.35L85.44 11.35Q85.01 13.24 84.34 14.20L84.34 14.20L84.34 14.20Q83.89 14.81 83.35 15.13L83.35 15.13L83.35 15.13Q82.81 15.44 82.36 15.44ZM80.86 10.82L80.82 11.40L80.82 11.40Q80.82 11.41 80.82 11.42L80.82 11.42L80.82 11.42Q81.06 14.38 83.15 14.38L83.15 14.38L83.15 14.38Q83.44 14.38 83.49 14.33L83.49 14.33L83.49 14.33Q83.54 14.28 83.57 14.24L83.57 14.24L83.59 14.20L83.59 14.20Q84.03 13.59 84.36 12.14L84.36 12.14L84.36 12.14Q84.78 10.26 84.20 9.34L84.20 9.34L84.20 9.34Q83.62 8.41 82.00 8.40L82.00 8.40L82.00 8.40Q81.59 8.40 81.40 8.53L81.40 8.53L81.40 8.53Q81.21 8.75 81.07 9.43L81.07 9.43L81.07 9.43Q80.93 10.11 80.92 10.42L80.92 10.42L80.92 10.42Q80.91 10.74 80.86 10.82L80.86 10.82ZM92.69 13.96L92.69 13.96L92.69 13.96Q92.86 13.93 92.89 14.06L92.89 14.06L92.89 14.06Q92.92 14.20 92.77 14.42L92.77 14.42L92.77 14.42Q92.62 14.64 92.27 14.92L92.27 14.92L92.27 14.92Q91.92 15.20 91.53 15.36L91.53 15.36L91.53 15.36Q90.76 15.67 90.58 15.08L90.58 15.08L90.58 15.08Q90.50 14.84 90.51 14.20L90.51 14.20L90.51 14.20Q89.78 15.08 89.04 15.34L89.04 15.34L89.04 15.34Q88.30 15.61 87.65 15.43L87.65 15.43L87.65 15.43Q85.65 14.87 86.45 10.81L86.45 10.81L86.45 10.81Q86.72 9.46 87.39 8.60L87.39 8.60L87.39 8.60Q88.54 7.11 90.20 7.34L90.20 7.34L90.20 7.34Q90.90 7.42 91.29 7.85L91.29 7.85L91.29 7.85Q91.62 7.42 91.97 7.34L91.97 7.34L91.97 7.34Q92.08 7.31 92.14 7.36L92.14 7.36L92.14 7.36Q92.20 7.41 92.19 7.52L92.19 7.52L92.19 7.52Q91.38 13.44 91.62 14.18L91.62 14.18L91.62 14.18Q91.73 14.52 91.98 14.39L91.98 14.39L91.98 14.39Q92.09 14.34 92.30 14.16L92.30 14.16L92.30 14.16Q92.51 13.99 92.69 13.96ZM90.58 12.80L90.58 12.80L90.58 12.80Q90.68 11.68 90.72 11.37L90.72 11.37L90.72 11.37Q91.08 8.62 89.36 8.40L89.36 8.40L89.36 8.40Q88.94 8.34 88.63 8.41L88.63 8.41L88.63 8.41Q88.21 8.50 88.06 8.68L88.06 8.68L88.06 8.68Q87.71 9.13 87.49 10.28L87.49 10.28L87.49 10.28Q87.26 11.42 87.29 12.31L87.29 12.31L87.29 12.31Q87.37 14.04 88.52 14.36L88.52 14.36L88.52 14.36Q89.40 14.62 89.88 14.04L89.88 14.04L89.88 14.04Q90.23 13.62 90.58 12.80ZM94.74 4.02L94.74 4.02Q94.75 3.85 94.92 3.63L94.92 3.63L94.92 3.63Q95.09 3.40 95.27 3.28L95.27 3.28L95.27 3.28Q95.45 3.16 95.56 3.14L95.56 3.14L95.56 3.14Q95.82 3.07 95.80 3.29L95.80 3.29L94.77 14.55L94.77 14.55Q94.75 14.70 94.58 14.93L94.58 14.93L94.58 14.93Q94.42 15.16 94.23 15.28L94.23 15.28L94.23 15.28Q94.05 15.40 93.94 15.43L93.94 15.43L93.94 15.43Q93.69 15.50 93.70 15.27L93.70 15.27L94.74 4.02Z"></path></g><!----><!----></svg>